<?xml version="1.0" encoding="UTF-8" standalone="no"?>
<!-- Generator: Adobe Illustrator 16.0.0, SVG Export Plug-In . SVG Version: 6.00 Build 0)  -->

<svg
   xmlns:dc="http://purl.org/dc/elements/1.1/"
   xmlns:cc="http://creativecommons.org/ns#"
   xmlns:rdf="http://www.w3.org/1999/02/22-rdf-syntax-ns#"
   xmlns:svg="http://www.w3.org/2000/svg"
   xmlns="http://www.w3.org/2000/svg"
   xmlns:sodipodi="http://sodipodi.sourceforge.net/DTD/sodipodi-0.dtd"
   xmlns:inkscape="http://www.inkscape.org/namespaces/inkscape"
   version="1.1"
   id="Capa_1"
   x="0px"
   y="0px"
   width="540.09px"
   height="540.09px"
   viewBox="0 0 540.09 540.09"
   style="enable-background:new 0 0 540.09 540.09;"
   xml:space="preserve"
   inkscape:version="0.48.4 r9939"
   sodipodi:docname="expand.svg"><metadata
   id="metadata45"><rdf:RDF><cc:Work
       rdf:about=""><dc:format>image/svg+xml</dc:format><dc:type
         rdf:resource="http://purl.org/dc/dcmitype/StillImage" /></cc:Work></rdf:RDF></metadata><defs
   id="defs43" /><sodipodi:namedview
   pagecolor="#ffffff"
   bordercolor="#666666"
   borderopacity="1"
   objecttolerance="10"
   gridtolerance="10"
   guidetolerance="10"
   inkscape:pageopacity="0"
   inkscape:pageshadow="2"
   inkscape:window-width="640"
   inkscape:window-height="480"
   id="namedview41"
   showgrid="false"
   inkscape:zoom="0.48305025"
   inkscape:cx="270.04501"
   inkscape:cy="270.04501"
   inkscape:window-x="0"
   inkscape:window-y="0"
   inkscape:window-maximized="0"
   inkscape:current-layer="Capa_1" />
<g
   id="g3"
   style="fill:#02c39a;fill-opacity:1">
	<g
   id="g5"
   style="fill:#02c39a;fill-opacity:1">
		<path
   d="M249.466,311.891l-20.349-20.35c-8.338-8.338-21.955-8.338-30.447,0L72.674,417.689v-107.1    c0-11.857-9.715-21.496-21.497-21.496H22.49c-11.857,0-21.496,9.715-21.496,21.496v208.004c0,5.967,2.371,11.321,6.349,15.146    c3.978,3.979,9.333,6.35,15.147,6.35h208.004c11.857,0,21.496-9.716,21.496-21.496v-28.688c0-11.857-9.715-21.497-21.496-21.497    h-107.1l126.072-126.071C257.881,333.846,257.881,320.229,249.466,311.891z"
   id="path7"
   style="fill:#02c39a;fill-opacity:1" />
		<path
   d="M532.746,6.35C528.768,2.372,523.412,0,517.598,0H309.596c-11.857,0-21.498,9.715-21.498,21.497v28.688    c0,11.857,9.717,21.497,21.498,21.497h107.1L290.471,197.676c-8.34,8.339-8.34,22.032,0,30.447l20.348,20.349    c8.34,8.339,22.033,8.339,30.447,0L467.414,122.4v107.1c0,11.857,9.717,21.497,21.496,21.497h28.688    c11.857,0,21.498-9.716,21.498-21.497V21.573C539.018,15.529,536.57,10.174,532.746,6.35z"
   id="path9"
   style="fill:#02c39a;fill-opacity:1" />
	</g>
</g>
<g
   id="g11">
</g>
<g
   id="g13">
</g>
<g
   id="g15">
</g>
<g
   id="g17">
</g>
<g
   id="g19">
</g>
<g
   id="g21">
</g>
<g
   id="g23">
</g>
<g
   id="g25">
</g>
<g
   id="g27">
</g>
<g
   id="g29">
</g>
<g
   id="g31">
</g>
<g
   id="g33">
</g>
<g
   id="g35">
</g>
<g
   id="g37">
</g>
<g
   id="g39">
</g>
</svg>