<?xml version="1.0" encoding="UTF-8" standalone="no"?>
<!-- Generator: Adobe Illustrator 16.0.0, SVG Export Plug-In . SVG Version: 6.00 Build 0)  -->

<svg
   xmlns:dc="http://purl.org/dc/elements/1.1/"
   xmlns:cc="http://creativecommons.org/ns#"
   xmlns:rdf="http://www.w3.org/1999/02/22-rdf-syntax-ns#"
   xmlns:svg="http://www.w3.org/2000/svg"
   xmlns="http://www.w3.org/2000/svg"
   xmlns:sodipodi="http://sodipodi.sourceforge.net/DTD/sodipodi-0.dtd"
   xmlns:inkscape="http://www.inkscape.org/namespaces/inkscape"
   version="1.1"
   id="Capa_1"
   x="0px"
   y="0px"
   width="328.911px"
   height="328.911px"
   viewBox="0 0 328.911 328.911"
   style="enable-background:new 0 0 328.911 328.911;"
   xml:space="preserve"
   inkscape:version="0.48.4 r9939"
   sodipodi:docname="expand_1.svg"><metadata
   id="metadata45"><rdf:RDF><cc:Work
       rdf:about=""><dc:format>image/svg+xml</dc:format><dc:type
         rdf:resource="http://purl.org/dc/dcmitype/StillImage" /></cc:Work></rdf:RDF></metadata><defs
   id="defs43" /><sodipodi:namedview
   pagecolor="#ffffff"
   bordercolor="#666666"
   borderopacity="1"
   objecttolerance="10"
   gridtolerance="10"
   guidetolerance="10"
   inkscape:pageopacity="0"
   inkscape:pageshadow="2"
   inkscape:window-width="640"
   inkscape:window-height="480"
   id="namedview41"
   showgrid="false"
   inkscape:zoom="0.79319517"
   inkscape:cx="164.45551"
   inkscape:cy="164.45551"
   inkscape:window-x="0"
   inkscape:window-y="0"
   inkscape:window-maximized="0"
   inkscape:current-layer="Capa_1" />
<g
   id="g3"
   style="color:#000000;fill:#02c39a;fill-opacity:1;fill-rule:nonzero;stroke-width:0.99999997;stroke-linecap:butt;stroke-linejoin:miter;stroke-miterlimit:4;stroke-opacity:1;stroke-dasharray:none;stroke-dashoffset:0;marker:none;visibility:visible;display:inline;overflow:visible;enable-background:accumulate">
	<g
   id="g5"
   style="color:#000000;fill:#02c39a;fill-opacity:1;fill-rule:nonzero;stroke-width:0.99999997;stroke-linecap:butt;stroke-linejoin:miter;stroke-miterlimit:4;stroke-opacity:1;stroke-dasharray:none;stroke-dashoffset:0;marker:none;visibility:visible;display:inline;overflow:visible;enable-background:accumulate">
		<path
   d="M310.199,18.71C297.735,6.242,282.65,0.007,264.951,0.007H63.954c-17.703,0-32.79,6.235-45.253,18.704    C6.235,31.177,0,46.261,0,63.96v200.991c0,17.515,6.232,32.552,18.701,45.11c12.467,12.566,27.553,18.843,45.253,18.843h201.004    c17.699,0,32.777-6.276,45.248-18.843c12.47-12.559,18.705-27.596,18.705-45.11V63.96    C328.911,46.261,322.666,31.177,310.199,18.71z M292.362,264.96c0,7.614-2.673,14.089-8.001,19.414    c-5.324,5.332-11.799,7.994-19.41,7.994H63.954c-7.614,0-14.082-2.662-19.414-7.994c-5.33-5.325-7.992-11.8-7.992-19.414V63.965    c0-7.613,2.662-14.086,7.992-19.414c5.327-5.327,11.8-7.994,19.414-7.994h201.004c7.61,0,14.086,2.663,19.41,7.994    c5.325,5.328,7.994,11.801,7.994,19.414V264.96z"
   id="path7"
   style="color:#000000;fill:#02c39a;fill-opacity:1;fill-rule:nonzero;stroke-width:0.99999997;stroke-linecap:butt;stroke-linejoin:miter;stroke-miterlimit:4;stroke-opacity:1;stroke-dasharray:none;stroke-dashoffset:0;marker:none;visibility:visible;display:inline;overflow:visible;enable-background:accumulate" />
		<path
   d="M246.683,146.189H182.73V82.236c0-2.667-0.855-4.854-2.573-6.567c-1.704-1.714-3.895-2.568-6.564-2.568h-18.271    c-2.667,0-4.854,0.854-6.567,2.568c-1.714,1.713-2.568,3.903-2.568,6.567v63.954H82.233c-2.664,0-4.857,0.855-6.567,2.568    c-1.711,1.713-2.568,3.903-2.568,6.567v18.271c0,2.666,0.854,4.855,2.568,6.563c1.712,1.708,3.903,2.57,6.567,2.57h63.954v63.953    c0,2.666,0.854,4.855,2.568,6.563c1.713,1.711,3.903,2.566,6.567,2.566h18.271c2.67,0,4.86-0.855,6.564-2.566    c1.718-1.708,2.573-3.897,2.573-6.563V182.73h63.953c2.662,0,4.853-0.862,6.563-2.57c1.712-1.708,2.563-3.897,2.563-6.563v-18.271    c0-2.664-0.852-4.857-2.563-6.567C251.536,147.048,249.345,146.189,246.683,146.189z"
   id="path9"
   style="color:#000000;fill:#02c39a;fill-opacity:1;fill-rule:nonzero;stroke-width:0.99999997;stroke-linecap:butt;stroke-linejoin:miter;stroke-miterlimit:4;stroke-opacity:1;stroke-dasharray:none;stroke-dashoffset:0;marker:none;visibility:visible;display:inline;overflow:visible;enable-background:accumulate" />
	</g>
</g>
<g
   id="g11">
</g>
<g
   id="g13">
</g>
<g
   id="g15">
</g>
<g
   id="g17">
</g>
<g
   id="g19">
</g>
<g
   id="g21">
</g>
<g
   id="g23">
</g>
<g
   id="g25">
</g>
<g
   id="g27">
</g>
<g
   id="g29">
</g>
<g
   id="g31">
</g>
<g
   id="g33">
</g>
<g
   id="g35">
</g>
<g
   id="g37">
</g>
<g
   id="g39">
</g>
</svg>