
<svg id="signature" version="1.1" id="Layer_1" xmlns="http://www.w3.org/2000/svg" xmlns:xlink="http://www.w3.org/1999/xlink" x="0px" y="0px"
	 viewBox="0 0 960 560" enable-background="new 0 0 960 560" xml:space="preserve">
<path class="stroke-D" fill="none" stroke="#000000" stroke-width="3" stroke-miterlimit="10" d="M180.2,55.7L76,183c-4.5,6.6-10,13.3-13.1,12.1
	c-2.4-0.9-2.4-6.1-2.4-6.5c0-7.6,5.1-13.1,7.5-14.2c0.2-0.1,0.5-0.2,1-0.3c2.7-0.5,5,1.9,5.1,2c2.3,3.4,1.5,3.8,1.8,6.8
	c6.6,55.4,156.3-49.3,133.5-117.5c-7.5-22.3-38.5-35.9-48-18.2c-12.8,16.6,14,44.9,52.3,14.7c33-26,40-31.9,49.9-33.9
	c3-0.6,5.7,0,7.4,0.4"/>
</svg>
