<?xml version="1.0" encoding="UTF-8" standalone="no"?>
<!-- Generator: Adobe Illustrator 18.1.1, SVG Export Plug-In . SVG Version: 6.00 Build 0)  -->

<svg
   xmlns:dc="http://purl.org/dc/elements/1.1/"
   xmlns:cc="http://creativecommons.org/ns#"
   xmlns:rdf="http://www.w3.org/1999/02/22-rdf-syntax-ns#"
   xmlns:svg="http://www.w3.org/2000/svg"
   xmlns="http://www.w3.org/2000/svg"
   xmlns:sodipodi="http://sodipodi.sourceforge.net/DTD/sodipodi-0.dtd"
   xmlns:inkscape="http://www.inkscape.org/namespaces/inkscape"
   version="1.1"
   id="Capa_1"
   x="0px"
   y="0px"
   viewBox="0 0 24 24"
   xml:space="preserve"
   inkscape:version="0.48.4 r9939"
   width="100%"
   height="100%"
   sodipodi:docname="ic_work.svg"><metadata
   id="metadata3088"><rdf:RDF><cc:Work
       rdf:about=""><dc:format>image/svg+xml</dc:format><dc:type
         rdf:resource="http://purl.org/dc/dcmitype/StillImage" /></cc:Work></rdf:RDF></metadata><defs
   id="defs3086" /><sodipodi:namedview
   pagecolor="#ffffff"
   bordercolor="#666666"
   borderopacity="1"
   objecttolerance="10"
   gridtolerance="10"
   guidetolerance="10"
   inkscape:pageopacity="0"
   inkscape:pageshadow="2"
   inkscape:window-width="1440"
   inkscape:window-height="837"
   id="namedview3084"
   showgrid="false"
   inkscape:zoom="10.174566"
   inkscape:cx="-5.2785404"
   inkscape:cy="11.146129"
   inkscape:window-x="-8"
   inkscape:window-y="-8"
   inkscape:window-maximized="1"
   inkscape:current-layer="Capa_1" />
<g
   id="g3042"
   transform="matrix(1.4983612,0,0,1.4983612,7.489201e-4,3.743298e-4)"
   style="color:#000000;fill:#02c39a;fill-opacity:1;fill-rule:nonzero;stroke-width:1;stroke-linecap:butt;stroke-linejoin:miter;stroke-miterlimit:4;stroke-opacity:1;stroke-dasharray:none;stroke-dashoffset:0;marker:none;visibility:visible;display:inline;overflow:visible;enable-background:accumulate">
	<g
   id="g3044"
   style="color:#000000;fill:#02c39a;fill-opacity:1;fill-rule:nonzero;stroke-width:1;stroke-linecap:butt;stroke-linejoin:miter;stroke-miterlimit:4;stroke-opacity:1;stroke-dasharray:none;stroke-dashoffset:0;marker:none;visibility:visible;display:inline;overflow:visible;enable-background:accumulate">
		<g
   id="g3046"
   style="color:#000000;fill:#02c39a;fill-opacity:1;fill-rule:nonzero;stroke-width:1;stroke-linecap:butt;stroke-linejoin:miter;stroke-miterlimit:4;stroke-opacity:1;stroke-dasharray:none;stroke-dashoffset:0;marker:none;visibility:visible;display:inline;overflow:visible;enable-background:accumulate">
			<path
   style="color:#000000;fill:#02c39a;fill-opacity:1;fill-rule:nonzero;stroke-width:1;stroke-linecap:butt;stroke-linejoin:miter;stroke-miterlimit:4;stroke-opacity:1;stroke-dasharray:none;stroke-dashoffset:0;marker:none;visibility:visible;display:inline;overflow:visible;enable-background:accumulate"
   d="m 0.439,13.456 c -0.586,0.586 -0.586,1.535 0,2.121 0.293,0.293 0.677,0.439 1.061,0.439 0.384,0 0.768,-0.146 1.061,-0.439 L 7.486,10.651 5.364,8.531 0.439,13.456 z"
   id="path3048"
   inkscape:connector-curvature="0" />
			<polygon
   style="color:#000000;fill:#02c39a;fill-opacity:1;fill-rule:nonzero;stroke-width:1;stroke-linecap:butt;stroke-linejoin:miter;stroke-miterlimit:4;stroke-opacity:1;stroke-dasharray:none;stroke-dashoffset:0;marker:none;visibility:visible;display:inline;overflow:visible;enable-background:accumulate"
   points="14.893,3.219 16.016,1.048 14.969,0.001 12.799,1.125 11.688,3.268 9.079,5.88 10.137,6.94 12.748,4.328 "
   id="polygon3050" />
			<path
   style="color:#000000;fill:#02c39a;fill-opacity:1;fill-rule:nonzero;stroke-width:1;stroke-linecap:butt;stroke-linejoin:miter;stroke-miterlimit:4;stroke-opacity:1;stroke-dasharray:none;stroke-dashoffset:0;marker:none;visibility:visible;display:inline;overflow:visible;enable-background:accumulate"
   d="m 13.218,10.021 -0.202,-0.02 c -0.366,0 -0.713,0.075 -1.037,0.195 L 5.822,4.038 C 5.942,3.714 6.017,3.367 6.017,3.001 L 5.997,2.799 C 5.891,1.238 4.605,0.001 3.017,0.001 c -0.462,0 -0.895,0.113 -1.286,0.3 L 3.724,2.294 C 3.829,2.399 3.901,2.523 3.949,2.654 4.08,3.008 4.009,3.422 3.724,3.708 3.529,3.903 3.273,4.001 3.017,4.001 2.899,4.001 2.782,3.975 2.67,3.933 2.539,3.883 2.415,3.813 2.31,3.707 L 0.317,1.715 c -0.187,0.391 -0.3,0.824 -0.3,1.286 0,1.588 1.237,2.874 2.798,2.98 l 0.202,0.02 c 0.366,0 0.713,-0.075 1.037,-0.194 l 6.156,6.157 c -0.118,0.324 -0.193,0.671 -0.193,1.037 l 0.021,0.202 c 0.104,1.562 1.391,2.798 2.979,2.798 0.462,0 0.896,-0.111 1.286,-0.3 L 12.31,13.708 c -0.104,-0.104 -0.177,-0.229 -0.227,-0.359 -0.131,-0.354 -0.06,-0.769 0.227,-1.055 0.193,-0.195 0.451,-0.293 0.707,-0.293 0.118,0 0.234,0.025 0.348,0.068 0.131,0.049 0.256,0.119 0.359,0.225 l 1.993,1.993 c 0.188,-0.392 0.3,-0.824 0.3,-1.286 -0.001,-1.588 -1.238,-2.874 -2.799,-2.98 z"
   id="path3052"
   inkscape:connector-curvature="0" />
		</g>
	</g>
</g>
<g
   id="g3054"
   transform="translate(0,7.983)">
</g>
<g
   id="g3056"
   transform="translate(0,7.983)">
</g>
<g
   id="g3058"
   transform="translate(0,7.983)">
</g>
<g
   id="g3060"
   transform="translate(0,7.983)">
</g>
<g
   id="g3062"
   transform="translate(0,7.983)">
</g>
<g
   id="g3064"
   transform="translate(0,7.983)">
</g>
<g
   id="g3066"
   transform="translate(0,7.983)">
</g>
<g
   id="g3068"
   transform="translate(0,7.983)">
</g>
<g
   id="g3070"
   transform="translate(0,7.983)">
</g>
<g
   id="g3072"
   transform="translate(0,7.983)">
</g>
<g
   id="g3074"
   transform="translate(0,7.983)">
</g>
<g
   id="g3076"
   transform="translate(0,7.983)">
</g>
<g
   id="g3078"
   transform="translate(0,7.983)">
</g>
<g
   id="g3080"
   transform="translate(0,7.983)">
</g>
<g
   id="g3082"
   transform="translate(0,7.983)">
</g>
</svg>