<?xml version="1.0" encoding="utf-8"?>
<!-- Generator: Adobe Illustrator 18.1.1, SVG Export Plug-In . SVG Version: 6.00 Build 0)  -->
<!DOCTYPE svg PUBLIC "-//W3C//DTD SVG 1.1//EN" "http://www.w3.org/Graphics/SVG/1.1/DTD/svg11.dtd">
<svg version="1.1" id="Layer_1" xmlns="http://www.w3.org/2000/svg" xmlns:xlink="http://www.w3.org/1999/xlink" x="0px" y="0px"
	 viewBox="0 0 470 386" enable-background="new 0 0 470 386" xml:space="preserve">
<g>
	<g>
		<path d="M236.4,155.1c7.6,0,20.1,3.3,20.1,11.4v4.4h-5v-3c0-5-8.7-7.8-14.9-7.8c-11.9,0-21.1,9.3-21.1,22.3
			c0,12.9,9.1,23.2,21.3,23.2c11.1,0,17.6-7.6,17.6-7.6l3.1,3.9c0,0-7.4,8.7-20.7,8.7c-15.8,0-26.9-12.5-26.9-28.2
			C209.9,167,221.3,155.1,236.4,155.1z"/>
		<path d="M314.9,160.8h-5v-4.7h22.8c9,0,15.5,6,15.5,15.3c0,8.3-5.1,13.2-10.4,14.4v0.2c0,0,1.1,0.6,1.8,2.1l7.7,15.3
			c0.8,1.6,1.9,1.8,3.8,1.8h1.1v4.7h-2.4c-4.4,0-5.7-0.5-7.4-4.1l-7.7-15.4c-1.5-2.8-2.4-3.2-5.4-3.2h-9v22.6h-5.4V160.8z
			 M332.2,182.5c6.4,0,10.4-4.2,10.4-10.9c0-6.7-4-10.7-10.3-10.7h-12v21.6H332.2z"/>
		<path d="M361.2,160.8h-5v-4.7h30.8c3.3,0,4.7,1.4,4.7,4.7v5.4h-5v-3.6c0-1.1-0.6-1.7-1.7-1.7h-18.4v19.6h20.2v4.7h-20.2v18.3
			c0,1.1,0.6,1.7,1.7,1.7h18.9c1.1,0,1.7-0.5,1.7-1.7v-3.6h5v5.4c0,3.3-1.4,4.7-4.7,4.7h-23.3c-3.3,0-4.7-1.4-4.7-4.7V160.8z"/>
		<path d="M416.2,160.8h-13.3c-1.1,0-1.7,0.5-1.7,1.7v3.6h-4.9v-5.7c0-3.3,1.1-4.4,4.4-4.4H437c3.3,0,4.4,1.1,4.4,4.4v5.7h-5v-3.6
			c0-1.2-0.5-1.7-1.7-1.7h-13.2v49h-5.4V160.8z"/>
		<path d="M281.5,156.1h3.6l15.1,34.7h-5l-11.9-28.3l-11.9,28.3h-5L281.5,156.1z"/>
	</g>
	<g>
		<path d="M83.1,65.6c-1.3,0-2.4,0-3.5-0.1c-1.1-0.1-1.8-0.4-2.1-0.9S77,63.5,77,63c0-0.5,0.5-0.9,1.6-1.1c1.1-0.2,2.7-0.3,4.9-0.3
			c0.5,0,1.3,0,2.1,0c0.1-1.8,0.2-3.5,0.2-5.1c0-3.7-0.5-7.2-1.5-10.5c-1-3.4-3.2-5.1-6.6-5.1c-2.4,0-4.2,1.3-5.5,3.8
			c-0.9,1.8-1.6,2.9-2.1,3.4c-0.5,0.5-1,0.7-1.7,0.7c-1.9,0-2.8-1-2.8-3c0-1.9,0.8-3.4,2.3-4.7c1.6-1.3,4.1-1.9,7.7-1.9
			c3.8,0,7,1,9.5,2.9c2.5,2,4.2,4.4,5,7.4c0.8,3,1.2,6.9,1.2,11.9c3.3,0.1,5.3,0.3,5.8,0.6c0.5,0.3,0.8,1,0.8,2
			c0,0.6-0.6,0.9-1.7,0.9c-1.1,0-2.7,0.1-4.9,0.3c0,2.3,0,4.3,0,6.2c0,4.6,0.1,9.3,0.3,14s0.3,7.5,0.5,8.2c0.2,0.8,0.5,1.4,1.1,1.8
			c0.5,0.4,1.5,0.7,2.8,0.9c1,0.1,1.5,0.5,1.5,1c0,0.4-0.3,0.6-0.9,0.6h-0.5c-1.6-0.2-4.7-0.3-9.4-0.3l-7.2,0.4
			c-0.6,0-0.9-0.2-0.9-0.6c0-0.5,0.4-0.8,1.2-0.9c2.1-0.3,3.6-0.9,4.5-2.1c0.9-1.1,1.4-2.6,1.4-4.3c0.1-1.8,0.1-6.5,0.1-14.3
			c0-6-0.1-9.6-0.2-10.7C84.6,65.5,83.8,65.6,83.1,65.6z"/>
		<path d="M126.6,92.3c-1.4,2-3.1,3.5-5,4.5c-1.9,1-4.1,1.5-6.6,1.5c-2.9,0-5.1-0.8-6.8-2.3c-1.6-1.5-2.5-3.6-2.5-6.1
			c0-1.9,0.5-3.6,1.5-5.3c1-1.6,2.1-2.8,3.4-3.5c1.3-0.7,3.5-1.6,6.7-2.7c4.6-1.5,7.3-2.8,8.2-3.8c0.9-1,1.4-2.3,1.4-3.9
			c0-2.5-0.6-4.5-1.8-5.9c-1.2-1.4-2.9-2.1-5.1-2.1c-1.8,0-3.1,0.4-4.1,1.2c-0.9,0.8-1.6,2.4-2.1,4.8c-0.5,2.6-1.6,3.9-3.4,3.9
			c-0.6,0-1.3-0.3-2.1-0.9c-0.8-0.6-1.1-1.6-1.1-2.8c0-2.1,1.2-4,3.5-5.6c2.4-1.6,5.6-2.4,9.7-2.4c3.3,0,5.9,0.5,7.8,1.4
			c2,0.9,3.2,2,3.7,3.2c0.5,1.2,0.7,3.5,0.7,6.9l-0.3,11.3c0,4.4,0.3,7.5,0.8,9.3c0.5,1.8,1.5,2.8,2.9,2.8c0.3,0,0.7,0,1.2-0.1
			l0.7-0.1c0.7,0,1,0.2,1,0.7c0,1.1-2.8,1.6-8.4,1.6c-1.6,0-2.7-0.4-3.3-1.1S126.7,94.7,126.6,92.3z M126.6,75.6
			c-0.9,1.1-2.8,2.5-5.8,4.1c-3,1.5-5.1,3-6.5,4.4c-1.3,1.4-2,3.1-2,5.1c0,1.8,0.5,3.3,1.6,4.6c1.1,1.3,2.4,1.9,4,1.9
			c1.7,0,3.2-0.5,4.7-1.5c1.5-1,2.5-2.3,3.2-3.9c0.7-1.6,1-3.9,1-7C126.9,81,126.8,78.4,126.6,75.6z"/>
		<path d="M153.3,61.9c0.1,1.9,0.3,7.2,0.4,16.1c0.1,5.5,0.2,9.2,0.4,11c0.2,1.8,0.9,3.4,2.2,4.5c1.2,1.2,2.6,1.8,4.2,1.8
			c2.1,0,4.1-1,6.2-2.9c2.1-1.9,3.3-4,3.8-6.1c0.5-2.2,0.7-7.2,0.7-15c0-3.6-0.2-5.9-0.7-6.6c-0.5-0.8-1.6-1.2-3.3-1.3
			c-0.7,0-1-0.3-1-0.7c0-0.3,0.1-0.5,0.3-0.6c0.2-0.1,0.8-0.1,1.9-0.1h8.5c0.3,3.1,0.4,6.6,0.4,10.4l-0.3,16.1
			c0,3.3,0.3,5.4,0.8,6.2c0.6,0.9,1.4,1.3,2.6,1.5c0.7,0.1,1.1,0.4,1.1,0.9c0,0.5-0.7,0.8-2.2,0.8h-6.8c-1.2,0-1.8-0.4-1.8-1.2
			c0-0.2,0-0.5,0-0.8c0.1-0.9,0.1-1.7,0.1-2.6c0-0.7,0-1.8-0.1-3.2c-2.2,2.8-4.4,4.9-6.8,6.3c-2.3,1.4-4.8,2.1-7.3,2.1
			c-2.2,0-4-0.5-5.4-1.6c-1.5-1.1-2.4-2.3-2.9-3.8c-0.5-1.5-0.8-5.2-1-11.2c-0.2-6-0.3-10.6-0.3-14c0-1.9-0.1-3-0.3-3.5
			c-0.2-0.5-0.8-0.7-1.9-0.8c-1.1-0.1-1.7-0.4-1.7-0.9c0-0.5,0.7-0.7,2.1-0.7H153.3z"/>
		<path d="M187.5,80.5c0-5.2,1.7-9.8,5-13.7c3.3-3.9,7.4-5.9,12.2-5.9c3.1,0,6.1,0.8,8.9,2.3c2.8,1.5,4.3,3.4,4.3,5.7
			c0,0.9-0.3,1.7-0.8,2.3c-0.5,0.7-1.2,1-1.9,1c-1.6,0-2.8-1.3-3.7-3.8c-1.3-3.9-3.6-5.9-6.9-5.9c-3.2,0-5.7,1.4-7.4,4.2
			c-1.7,2.8-2.5,6.5-2.5,11.1c0,5.4,1.2,9.7,3.5,13.1c2.4,3.4,5.2,5.1,8.5,5.1c2.2,0,4.3-0.9,6.4-2.6c2-1.7,3.2-3.7,3.5-6.2
			c0.1-0.8,0.5-1.2,0.9-1.2c0.5,0,0.8,0.3,0.8,0.8c0,2.8-1.3,5.4-3.9,7.9c-2.6,2.4-6,3.7-10.4,3.7c-4.7,0-8.7-1.8-11.9-5.4
			C189.1,89.4,187.5,85.2,187.5,80.5z"/>
		<path d="M231.1,77.8c-0.1,1.5-0.2,2.6-0.2,3.5c0,4,1.2,7.5,3.6,10.3c2.4,2.8,5.3,4.2,8.8,4.2c3.4,0,6.6-1.4,9.5-4.1
			c0.9-0.8,1.4-1.2,1.6-1.2c0.5,0,0.7,0.4,0.7,1.1c-1.1,2-2.9,3.7-5.6,5c-2.6,1.4-5.5,2.1-8.8,2.1c-4.7,0-8.7-1.7-12-5.1
			c-3.3-3.4-4.9-7.7-4.9-12.9c0-5.6,1.8-10.2,5.4-14c3.6-3.7,7.5-5.6,11.6-5.6c3.8,0,7.3,1.5,10.4,4.4c3.1,2.9,4.7,6.3,4.7,10.3
			c0,0.6-0.1,1-0.3,1.3c-0.2,0.3-1.3,0.4-3.3,0.4L231.1,77.8z M231.1,75.6c3.7,0.2,7.3,0.3,10.8,0.3l2.3-0.1c1.7-0.1,3-0.4,3.9-1
			c0.9-0.6,1.4-1.7,1.4-3.2c0-2.4-0.8-4.5-2.5-6.3c-1.6-1.8-3.6-2.7-5.8-2.7c-2.1,0-4.1,1-6.1,3.1C233.1,67.6,231.7,71,231.1,75.6z"
			/>
		<path d="M274.9,65c-0.4,6.3-0.6,12.5-0.6,18.6c0,4.7,0.6,7.7,1.7,9.2c1.1,1.4,2.7,2.1,4.8,2.1c1.5,0,3.2-0.6,5-1.7
			c0.7-0.4,1.1-0.6,1.2-0.6c0.4,0,0.6,0.2,0.6,0.6c0,0.7-1,1.8-3,3.2c-2,1.5-4.5,2.2-7.5,2.2c-2.9,0-5.1-1-6.6-3
			c-1.5-2-2.2-5-2.2-9.1c0-4.2,0.3-11.4,0.8-21.6c-0.2-0.1-1.6-0.2-4.1-0.3l-2.6-0.2c-0.6,0-0.9-0.2-0.9-0.6c0-0.4,0.4-0.7,1.1-0.9
			c1.2-0.4,3.1-1.7,5.9-3.7c2.8-2.1,4.4-5,4.8-8.8c0.1-1,0.4-1.5,1-1.5c0.5,0,0.8,0.4,0.8,1.2c0,0.3,0,0.5,0,0.8
			c-0.1,1.1-0.1,2.4-0.1,3.8l0,6.6l9.4-0.1c1.6,0,2.4,0.2,2.5,0.6c0,1.3-0.2,2.1-0.6,2.5C284.6,64.3,280.8,64.5,274.9,65z"/>
		<path fill="#5B5B5B" stroke="#000000" stroke-width="0.782" stroke-miterlimit="10" d="M33.8,101.9c0,0,0.1-2.5,13-2.4
			c12.9,0.1,14.9-0.6,18.1-1.8c3.3-1.2,6.2,0.3,6.2,0.3l-3.8,3.4"/>
		<path d="M67.4,102H29.2c-0.3,0-0.5-0.2-0.6-0.4c-0.1-0.3,0.1-0.6,0.3-0.7l12-6.6c0.1,0,0.2-0.3,0.3-0.3h33.2
			c0.3,0,0.5,0.4,0.6,0.6c0.1,0.2,0,0.6-0.2,0.8l-7.1,6.4C67.7,101.9,67.5,102,67.4,102z M31.8,101h35.3l5.7-5H41.4L31.8,101z"/>
	</g>
	<g>
		<rect x="31.4" y="259.8" width="199.1" height="86.7"/>
		<g>
			<path fill="none" stroke="#FFFFFF" stroke-width="0.5267" stroke-miterlimit="10" d="M85.8,318.6h-4.5v-28.9l-9.8,0.3v28.6H67
				v-28.9l-9.8,0.3v28.6h-4.5v-32.9h4.5v0.9c1.8-0.2,3.5-0.5,5.3-0.7c2.1-0.3,3.9-0.4,5.3-0.4c1.4,0,2.4,0.4,3,1.3
				c1.9-0.2,3.8-0.5,5.7-0.8c2.5-0.3,4.3-0.5,5.6-0.5c2.5,0,3.7,1.2,3.7,3.7V318.6z"/>
			<path fill="none" stroke="#FFFFFF" stroke-width="0.5267" stroke-miterlimit="10" d="M111.7,318.6h-4.4v-0.9
				c-1.8,0.2-3.6,0.5-5.3,0.7c-2.2,0.3-4,0.4-5.3,0.4c-2.5,0-3.7-1.2-3.7-3.7v-12c0-2.5,1.3-3.8,3.8-3.8h10.6v-9.9h-9.7v5.6h-4.4
				v-5.6c0-2.5,1.3-3.8,3.8-3.8h10.8c2.5,0,3.8,1.3,3.8,3.8V318.6z M107.3,314.5v-11.6H97.3v11.8L107.3,314.5z"/>
			<path fill="none" stroke="#FFFFFF" stroke-width="0.5267" stroke-miterlimit="10" d="M137.8,327.2c0,2.5-1.3,3.8-3.8,3.8h-10.7
				c-2.6,0-3.9-1.6-3.9-4.8c0-0.4,0-1,0.1-1.7c0-0.8,0.1-1.3,0.1-1.6h4.4v4.4h9.4v-8.7h-7.4c-2,0-3.7-0.7-5-2c-1.3-1.3-2-3-2-5.1
				v-19.3c0-1.9,0.6-3.6,1.8-4.9c1.2-1.3,2.7-1.9,4.6-1.9c0.5,0,3.2,0.4,8,1.1v-0.9h4.5V327.2z M133.3,314.6v-24.9
				c-3.6-0.2-5.6-0.3-6.2-0.3c-2.5,0-3.7,1.3-3.7,3.8v17.6c0,2.5,1.2,3.8,3.7,3.8H133.3z"/>
			<path fill="none" stroke="#FFFFFF" stroke-width="0.5267" stroke-miterlimit="10" d="M164.1,318.6h-4.5v-28.9l-9.9,0.3v28.6h-4.5
				v-32.9h4.5v0.9c1.8-0.2,3.5-0.5,5.3-0.7c2.2-0.3,3.9-0.4,5.3-0.4c2.5,0,3.8,1.2,3.8,3.7V318.6z"/>
			<path fill="#FFFFFF" stroke="#FFFFFF" stroke-width="0.5267" stroke-miterlimit="10" d="M189.8,314.7c0,2.5-1.3,3.8-3.8,3.8
				h-10.8c-2.5,0-3.8-1.3-3.8-3.8v-25.3c0-2.5,1.3-3.8,3.8-3.8H186c2.5,0,3.8,1.3,3.8,3.8v11.8l-1.5,1.6h-12.5v11.9h9.7v-6h4.4
				V314.7z M185.5,299.3v-9.9h-9.7v9.9H185.5z"/>
			<path fill="none" stroke="#FFFFFF" stroke-width="0.5267" stroke-miterlimit="10" d="M209.1,318.6h-6.4c-2.5,0-3.8-1.3-3.8-3.8
				v-25.1h-4v-4h4v-10.3h4.4v10.3h5.8v4h-5.8v25h5.8V318.6z"/>
			
				<rect x="195" y="285.6" fill="#FFFFFF" stroke="#FFFFFF" stroke-width="0.5267" stroke-miterlimit="10" width="14.1" height="4"/>
		</g>
	</g>
</g>
</svg>
